<svg width="480pt" height="290pt" viewBox="0 0 480 290" version="1.1" xmlns="http://www.w3.org/2000/svg" xmlns:xlink="http://www.w3.org/1999/xlink">
  <g id="surface2">
    <path style=" stroke:none;fill-rule:evenodd;fill:rgb(21.568627%,41.960784%,28.235294%);fill-opacity:1;" d="M 248.550781 75.949219 L 242.949219 78.601562 L 244.25 79.25 L 249.25 77.25 L 248.550781 75.949219 "/>
    <path style=" stroke:none;fill-rule:evenodd;fill:rgb(21.568627%,41.960784%,28.235294%);fill-opacity:1;" d="M 193.648438 72.648438 C 193.683594 71.984375 193.765625 71.332031 193.898438 70.699219 C 194.035156 70.066406 194.949219 69.5 196.648438 69 C 198.882812 68.433594 202.367188 68.464844 207.101562 69.101562 C 211.832031 69.765625 215.398438 70.398438 217.800781 71 C 219.265625 71.398438 222.535156 72.464844 227.601562 74.199219 C 232.699219 75.933594 238.148438 77.917969 243.949219 80.148438 C 249.785156 82.351562 254.535156 84.367188 258.199219 86.199219 C 261.234375 87.898438 260.101562 87.949219 254.800781 86.351562 C 249.464844 84.714844 242.832031 82.566406 234.898438 79.898438 C 226.964844 77.234375 220.601562 75.148438 215.800781 73.648438 C 209.398438 71.582031 204.535156 70.667969 201.199219 70.898438 C 197.832031 71.132812 195.75 72.050781 194.949219 73.648438 C 194.285156 74.851562 193.667969 77.933594 193.101562 82.898438 C 192.535156 87.832031 192.015625 92.765625 191.550781 97.699219 C 191.082031 102.632812 190.683594 105.648438 190.351562 106.75 C 189.984375 107.214844 189.800781 105.25 189.800781 100.851562 C 189.800781 96.449219 190.082031 91.433594 190.648438 85.800781 C 191.25 80.199219 192.25 75.816406 193.648438 72.648438 "/>
    <path style=" stroke:none;fill-rule:evenodd;fill:rgb(21.568627%,41.960784%,28.235294%);fill-opacity:1;" d="M 230.699219 116 C 232.035156 116.066406 233.351562 116.617188 234.648438 117.648438 C 234.117188 117.550781 233.566406 117.449219 233 117.351562 C 230.601562 117.25 228.449219 118.316406 226.550781 120.550781 C 224.648438 122.785156 223.5 125.683594 223.101562 129.25 C 222.800781 132.816406 223.367188 135.867188 224.800781 138.398438 C 226.199219 140.933594 228.167969 142.398438 230.699219 142.800781 L 231.050781 142.800781 C 230.050781 143.101562 229.050781 143.214844 228.050781 143.148438 C 225.351562 142.714844 223.234375 141.148438 221.699219 138.449219 C 220.132812 135.75 219.5 132.464844 219.800781 128.601562 C 220.332031 124.832031 221.617188 121.734375 223.648438 119.300781 C 225.648438 116.867188 228 115.765625 230.699219 116 "/>
    <path style=" stroke:none;fill-rule:evenodd;fill:rgb(21.568627%,41.960784%,28.235294%);fill-opacity:1;" d="M 234.648438 116.648438 C 235.984375 116.714844 237.316406 117.265625 238.648438 118.300781 C 238.082031 118.035156 237.535156 117.933594 237 118 C 231.800781 118.199219 228.601562 122.050781 227.398438 129.550781 C 227.132812 132.984375 227.683594 135.917969 229.050781 138.351562 C 230.417969 140.816406 232.285156 142.183594 234.648438 142.449219 C 234.949219 142.449219 235.066406 142.449219 235 142.449219 C 234 142.917969 233 143.035156 232 142.800781 C 229.464844 142.535156 227.449219 141.082031 225.949219 138.449219 C 224.449219 135.816406 223.832031 132.632812 224.101562 128.898438 C 224.667969 125.167969 225.933594 122.132812 227.898438 119.800781 C 229.867188 117.464844 232.117188 116.417969 234.648438 116.648438 "/>
    <path style=" stroke:none;fill-rule:evenodd;fill:rgb(21.568627%,41.960784%,28.235294%);fill-opacity:1;" d="M 189 114.351562 C 188.964844 114.550781 189.382812 115.550781 190.25 117.351562 C 191.117188 119.117188 192.683594 120.433594 194.949219 121.300781 C 196.816406 121.632812 199.550781 121.984375 203.148438 122.351562 C 206.785156 122.683594 210.132812 122.984375 213.199219 123.25 C 216.300781 123.484375 217.933594 123.601562 218.101562 123.601562 L 219.449219 117.648438 L 189 114.351562 "/>
    <path style=" stroke:none;fill-rule:evenodd;fill:rgb(21.568627%,41.960784%,28.235294%);fill-opacity:1;" d="M 185.648438 111.351562 C 187.050781 111.449219 188.265625 111.898438 189.300781 112.699219 L 189.300781 113 C 188.964844 112.898438 188.632812 112.800781 188.300781 112.699219 C 185.765625 112.601562 183.582031 113.667969 181.75 115.898438 C 179.917969 118.132812 178.800781 121.035156 178.398438 124.601562 C 178.101562 128.167969 178.667969 131.214844 180.101562 133.75 C 181.5 136.285156 183.464844 137.75 186 138.148438 C 185.933594 138.148438 186.050781 138.148438 186.351562 138.148438 C 185.382812 138.417969 184.265625 138.535156 183 138.5 C 180.464844 138.066406 178.449219 136.5 176.949219 133.800781 C 175.449219 131.101562 174.832031 127.800781 175.101562 123.898438 C 175.5 120.167969 176.714844 117.082031 178.75 114.648438 C 180.785156 112.214844 183.082031 111.117188 185.648438 111.351562 "/>
    <path style=" stroke:none;fill-rule:evenodd;fill:rgb(21.568627%,41.960784%,28.235294%);fill-opacity:1;" d="M 189 114 C 185.398438 115.667969 183.300781 119.300781 182.699219 124.898438 C 182.433594 128.332031 182.984375 131.285156 184.351562 133.75 C 185.714844 136.214844 187.582031 137.582031 189.949219 137.851562 C 189.917969 137.851562 190.035156 137.851562 190.300781 137.851562 C 189.300781 138.214844 188.316406 138.433594 187.351562 138.5 C 184.648438 138.066406 182.566406 136.515625 181.101562 133.851562 C 179.667969 131.183594 179.101562 127.984375 179.398438 124.25 C 179.800781 120.683594 180.917969 117.734375 182.75 115.398438 C 184.582031 113.066406 186.765625 111.933594 189.300781 112 L 189 114 "/>
    <path style=" stroke:none;fill-rule:evenodd;fill:rgb(21.568627%,41.960784%,28.235294%);fill-opacity:1;" d="M 284.300781 105.699219 C 282.367188 105.398438 280.601562 105.734375 279 106.699219 C 279.734375 106.699219 280.285156 106.699219 280.648438 106.699219 C 283.851562 107.167969 286.316406 109 288.050781 112.199219 C 289.816406 115.367188 290.550781 119.167969 290.25 123.601562 C 289.648438 128 288.183594 131.582031 285.851562 134.351562 C 283.484375 137.117188 280.765625 138.382812 277.699219 138.148438 L 277.351562 138.148438 C 278.382812 138.75 279.601562 139.199219 281 139.5 C 284.234375 139.699219 287.101562 138.285156 289.601562 135.25 C 292.101562 132.25 293.632812 128.367188 294.199219 123.601562 C 294.632812 118.832031 293.898438 114.734375 292 111.300781 C 290.101562 107.898438 287.535156 106.035156 284.300781 105.699219 "/>
    <path style=" stroke:none;fill-rule:evenodd;fill:rgb(21.568627%,41.960784%,28.235294%);fill-opacity:1;" d="M 258.5 100.148438 C 258.5 100.351562 258.601562 101.25 258.800781 102.851562 C 259 104.484375 259.351562 105.566406 259.851562 106.101562 C 260.484375 106.234375 262.332031 105.832031 265.398438 104.898438 C 268.464844 103.964844 271.601562 102.949219 274.800781 101.851562 C 277.964844 100.785156 280.035156 100.101562 281 99.800781 C 281.632812 99.601562 280.515625 99.617188 277.648438 99.851562 C 274.785156 100.082031 271.765625 100.351562 268.601562 100.648438 C 265.433594 100.917969 263.714844 101.066406 263.449219 101.101562 L 259.148438 97.148438 L 258.5 100.148438 "/>
    <path style=" stroke:none;fill-rule:evenodd;fill:rgb(21.568627%,41.960784%,28.235294%);fill-opacity:1;" d="M 254.199219 106.398438 C 254.234375 106.699219 254.5 108.082031 255 110.550781 C 255.464844 113.015625 255.964844 114.734375 256.5 115.699219 C 257.5 116.101562 259.882812 115.550781 263.648438 114.050781 C 267.449219 112.550781 269.601562 111.667969 270.101562 111.398438 L 273.398438 106.75 L 259.5 111.050781 L 255.851562 105.101562 C 255.785156 105.199219 255.515625 105.5 255.050781 106 C 254.550781 106.5 254.265625 106.632812 254.199219 106.398438 "/>
    <path style=" stroke:none;fill-rule:evenodd;fill:rgb(21.568627%,41.960784%,28.235294%);fill-opacity:1;" d="M 250.550781 117.648438 C 250.617188 117.949219 251.132812 119.285156 252.101562 121.648438 C 253.035156 123.984375 253.949219 125.398438 254.851562 125.898438 C 256.050781 126.101562 258.214844 125.464844 261.351562 124 C 264.484375 122.535156 266.398438 121.066406 267.101562 119.601562 C 267.667969 117.300781 267.882812 116.316406 267.75 116.648438 L 256.5 121.25 L 252.199219 115.648438 L 250.550781 117.648438 "/>
    <path style=" stroke:none;fill-rule:evenodd;fill:rgb(21.568627%,41.960784%,28.235294%);fill-opacity:1;" d="M 250.898438 129.550781 C 251 129.851562 251.765625 130.949219 253.199219 132.851562 C 254.632812 134.714844 256.066406 135.714844 257.5 135.851562 C 259.101562 135.183594 261.132812 133.667969 263.601562 131.300781 C 266.101562 128.898438 267.484375 127.550781 267.75 127.25 L 258.148438 132.199219 L 250.550781 126.25 C 250.582031 126.382812 250.683594 126.933594 250.851562 127.898438 C 251.015625 128.867188 251.035156 129.417969 250.898438 129.550781 "/>
    <path style=" stroke:none;fill-rule:evenodd;fill:rgb(21.568627%,41.960784%,28.235294%);fill-opacity:1;" d="M 254.5 138.5 L 260.101562 142.5 L 266.101562 139.148438 L 267.75 135.199219 L 260.449219 139.851562 L 254.5 138.5 "/>
    <path style=" stroke:none;fill-rule:evenodd;fill:rgb(21.568627%,41.960784%,28.235294%);fill-opacity:1;" d="M 259.148438 145.101562 L 265.75 146.449219 L 270.050781 140.148438 L 265.449219 144.800781 C 265.183594 144.832031 264.132812 144.933594 262.300781 145.101562 C 260.464844 145.234375 259.417969 145.234375 259.148438 145.101562 "/>
    <path style=" stroke:none;fill-rule:evenodd;fill:rgb(21.568627%,41.960784%,28.235294%);fill-opacity:1;" d="M 266.101562 92.851562 L 264.800781 97.148438 C 265.367188 97.148438 267.785156 97.199219 272.050781 97.300781 C 276.285156 97.398438 278.933594 97.464844 280 97.5 C 281.765625 97.367188 282.882812 97.25 283.351562 97.148438 C 282.984375 97.050781 281.351562 96.601562 278.449219 95.800781 C 275.550781 95.035156 273.433594 94.601562 272.101562 94.5 C 271.035156 94.398438 270.515625 93.949219 270.550781 93.148438 C 270.582031 92.382812 270.648438 91.949219 270.75 91.851562 L 266.101562 92.851562 "/>
    <path style=" stroke:none;fill-rule:evenodd;fill:rgb(21.568627%,41.960784%,28.235294%);fill-opacity:1;" d="M 281.648438 116.648438 C 280.984375 116.582031 280.316406 116.699219 279.648438 117 C 280.050781 117 280.265625 117 280.300781 117 C 282.699219 117.601562 283.917969 119.683594 283.949219 123.25 C 283.25 126.515625 281.714844 128.285156 279.351562 128.550781 C 279.382812 128.550781 279.265625 128.550781 279 128.550781 C 279.601562 128.683594 280.035156 128.800781 280.300781 128.898438 C 283.132812 128.832031 284.800781 126.949219 285.300781 123.25 C 285.398438 119.582031 284.183594 117.382812 281.648438 116.648438 "/>
    <path style=" stroke:none;fill-rule:evenodd;fill:rgb(21.568627%,41.960784%,28.235294%);fill-opacity:1;" d="M 255.851562 93.800781 C 256.117188 93.632812 257.5 92.832031 260 91.398438 C 262.5 90 264.535156 89.035156 266.101562 88.5 C 267.464844 88.199219 269.484375 88.234375 272.148438 88.601562 C 274.816406 88.964844 277 89.484375 278.699219 90.148438 C 280.464844 91.082031 282.648438 92.632812 285.25 94.800781 C 287.882812 96.964844 289.332031 98.183594 289.601562 98.449219 C 289.199219 98.183594 287.351562 97.082031 284.050781 95.148438 C 280.785156 93.214844 278.449219 92.101562 277.050781 91.800781 C 275.785156 91.632812 273.882812 91.433594 271.351562 91.199219 C 268.816406 90.964844 267.183594 90.851562 266.449219 90.851562 C 265.617188 91.050781 263.898438 91.933594 261.300781 93.5 C 258.667969 95.035156 257.183594 95.898438 256.851562 96.101562 C 256.75 96.367188 255.984375 98.234375 254.550781 101.699219 C 253.148438 105.167969 251.667969 108.734375 250.101562 112.398438 C 248.535156 116.066406 247.464844 118.367188 246.898438 119.300781 C 245.964844 120.035156 244.933594 120.351562 243.800781 120.25 C 242.667969 120.117188 242.050781 120.015625 241.949219 119.949219 L 242.949219 117 C 242.851562 117.300781 243.398438 117.300781 244.601562 117 C 245.265625 116.5 246.484375 114.398438 248.25 110.699219 C 250.015625 106.964844 251.699219 103.285156 253.300781 99.648438 C 254.898438 96.015625 255.75 94.066406 255.851562 93.800781 "/>
    <path style=" stroke:none;fill-rule:evenodd;fill:rgb(90.588235%,68.235294%,27.45098%);fill-opacity:1;" d="M 250.898438 59.050781 C 251 58.949219 252.101562 58.785156 254.199219 58.550781 C 256.300781 58.285156 258.734375 58.683594 261.5 59.75 C 263.832031 60.785156 265.015625 61.25 265.050781 61.148438 C 265.082031 61.015625 264.785156 60 264.148438 58.101562 C 263.648438 56.167969 262.515625 54.898438 260.75 54.300781 C 258.984375 53.734375 257.683594 53.550781 256.851562 53.75 C 256.214844 53.882812 255.832031 54.382812 255.699219 55.25 C 255.566406 56.117188 255.515625 56.617188 255.550781 56.75 C 255.417969 56.75 254.800781 56.964844 253.699219 57.398438 C 252.601562 57.832031 251.667969 58.382812 250.898438 59.050781 "/>
    <path style=" stroke:none;fill-rule:evenodd;fill:rgb(90.588235%,68.235294%,27.45098%);fill-opacity:1;" d="M 258.148438 77.601562 C 258.117188 77.765625 258.035156 78.449219 257.898438 79.648438 C 257.765625 80.851562 257.851562 81.601562 258.148438 81.898438 C 258.917969 82.035156 261.515625 82.515625 265.949219 83.351562 C 270.417969 84.183594 273.117188 84.582031 274.050781 84.550781 C 274.449219 83.851562 274.300781 81.933594 273.601562 78.800781 C 272.933594 75.667969 272.300781 73.5 271.699219 72.300781 C 270.898438 71.367188 269.285156 70.332031 266.851562 69.199219 C 264.449219 68.066406 263.101562 67.449219 262.800781 67.351562 C 262.734375 67.449219 262.417969 68.132812 261.851562 69.398438 C 261.316406 70.667969 260.851562 71.867188 260.449219 73 C 259.617188 74.964844 259.285156 75.949219 259.449219 75.949219 L 267.75 76.949219 L 270.398438 74.300781 L 268.398438 77.601562 L 271.699219 81.601562 L 267.75 78.25 C 267.316406 78.183594 265.667969 78 262.800781 77.699219 C 259.933594 77.367188 258.382812 77.332031 258.148438 77.601562 "/>
    <path style=" stroke:none;fill-rule:evenodd;fill:rgb(90.588235%,68.235294%,27.45098%);fill-opacity:1;" d="M 257.5 77.601562 C 256.964844 77.066406 255.765625 75.851562 253.898438 73.949219 C 252.765625 73.148438 251 73.148438 248.601562 73.949219 C 247.367188 74.183594 246.816406 74.566406 246.949219 75.101562 C 247.050781 75.601562 247.148438 75.882812 247.25 75.949219 C 247.050781 76.050781 246.832031 76.5 246.601562 77.300781 C 246.832031 77.667969 247.050781 77.882812 247.25 77.949219 L 247.601562 79.601562 L 251.550781 79.949219 C 251.550781 80.050781 251.800781 80.433594 252.300781 81.101562 C 252.800781 81.765625 253.550781 82.148438 254.550781 82.25 C 256.515625 82.183594 257.5 81.964844 257.5 81.601562 C 257.398438 81.601562 256.882812 81.566406 255.949219 81.5 C 255.015625 81.433594 254.332031 81.234375 253.898438 80.898438 C 253.101562 80.101562 252.648438 79.449219 252.550781 78.949219 C 252.214844 78.984375 251.550781 78.867188 250.550781 78.601562 C 250.25 78 250.25 77.566406 250.550781 77.300781 C 250.382812 77.398438 250.066406 77.167969 249.601562 76.601562 C 249.800781 75.832031 250.015625 75.398438 250.25 75.300781 C 250.082031 75.332031 250.082031 75.214844 250.25 74.949219 C 250.949219 74.582031 251.832031 74.367188 252.898438 74.300781 C 253.367188 74.601562 254.167969 75.300781 255.300781 76.398438 C 256.433594 77.5 257.066406 78.117188 257.199219 78.25 C 257.464844 78.214844 257.566406 78 257.5 77.601562 "/>
    <path style=" stroke:none;fill-rule:evenodd;fill:rgb(21.568627%,41.960784%,28.235294%);fill-opacity:1;" d="M 252.550781 73.300781 C 252.617188 73.132812 252.117188 72.417969 251.050781 71.148438 C 249.984375 69.882812 247.832031 69.167969 244.601562 69 C 241.234375 69.332031 239.035156 70.648438 238 72.949219 C 237 75.285156 236.550781 76.617188 236.648438 76.949219 C 236.617188 76.683594 237.117188 75.667969 238.148438 73.898438 C 239.183594 72.132812 241 71.265625 243.601562 71.300781 C 245.964844 71.566406 247.417969 72.117188 247.949219 72.949219 C 248.449219 73.75 248.648438 74.199219 248.550781 74.300781 L 252.550781 73.300781 "/>
    <path style=" stroke:none;fill-rule:evenodd;fill:rgb(21.568627%,41.960784%,28.235294%);fill-opacity:1;" d="M 238 73.648438 L 241.300781 78.949219 L 241.648438 77.648438 L 239 73 L 238 73.648438 "/>
    <path style=" stroke:none;fill-rule:evenodd;fill:rgb(21.568627%,41.960784%,28.235294%);fill-opacity:1;" d="M 243.300781 77.300781 C 244.734375 77.566406 245.5 78.332031 245.601562 79.601562 C 245.234375 80.734375 244.351562 81.183594 242.949219 80.949219 C 241.515625 80.785156 240.75 80.117188 240.648438 78.949219 C 241.015625 77.917969 241.898438 77.367188 243.300781 77.300781 "/>
    <path style=" stroke:none;fill-rule:evenodd;fill:rgb(90.588235%,68.235294%,27.45098%);fill-opacity:1;" d="M 256.199219 67.351562 L 257.851562 75.601562 C 257.75 75.535156 257.148438 75.132812 256.050781 74.398438 C 254.917969 73.699219 253.964844 73.214844 253.199219 72.949219 C 251.667969 71.984375 250.785156 71.332031 250.550781 71 L 248.25 69.648438 C 248.316406 69.515625 249.101562 69.050781 250.601562 68.25 C 252.101562 67.449219 253.964844 67.148438 256.199219 67.351562 "/>
    <path style=" stroke:none;fill-rule:evenodd;fill:rgb(21.568627%,41.960784%,28.235294%);fill-opacity:1;" d="M 195.25 76.949219 C 194.984375 76.816406 196.535156 76.367188 199.898438 75.601562 C 201.464844 75.632812 201.214844 76.300781 199.148438 77.601562 C 197.082031 78.867188 195.683594 79.535156 194.949219 79.601562 C 194.683594 79.464844 194.699219 79.015625 195 78.25 C 195.265625 77.484375 195.351562 77.050781 195.25 76.949219 "/>
    <path style=" stroke:none;fill-rule:evenodd;fill:rgb(21.568627%,41.960784%,28.235294%);fill-opacity:1;" d="M 194.949219 81.601562 C 194.515625 81.464844 196.066406 81.015625 199.601562 80.25 C 201.167969 80.285156 200.898438 80.949219 198.800781 82.25 C 196.699219 83.550781 195.199219 84.214844 194.300781 84.25 C 194.035156 84.148438 194.050781 83.699219 194.351562 82.898438 C 194.683594 82.132812 194.882812 81.699219 194.949219 81.601562 "/>
    <path style=" stroke:none;fill-rule:evenodd;fill:rgb(21.568627%,41.960784%,28.235294%);fill-opacity:1;" d="M 194.25 86.550781 C 193.949219 86.25 195.617188 85.800781 199.25 85.199219 C 200.785156 85.066406 200.484375 85.648438 198.351562 86.949219 C 196.183594 88.214844 194.714844 88.964844 193.949219 89.199219 C 193.683594 88.933594 193.699219 88.398438 194 87.601562 C 194.265625 86.832031 194.351562 86.484375 194.25 86.550781 "/>
    <path style=" stroke:none;fill-rule:evenodd;fill:rgb(21.568627%,41.960784%,28.235294%);fill-opacity:1;" d="M 193.949219 91.5 C 193.515625 91.300781 195.066406 90.75 198.601562 89.851562 C 200.167969 89.882812 199.917969 90.550781 197.851562 91.851562 C 195.785156 93.117188 194.367188 93.785156 193.601562 93.851562 C 193.199219 93.714844 193.132812 93.285156 193.398438 92.550781 C 193.699219 91.816406 193.882812 91.464844 193.949219 91.5 "/>
    <path style=" stroke:none;fill-rule:evenodd;fill:rgb(21.568627%,41.960784%,28.235294%);fill-opacity:1;" d="M 193.300781 96.449219 C 193 96.25 194.667969 96.035156 198.300781 95.800781 C 199.699219 95.964844 199.351562 96.566406 197.25 97.601562 C 195.148438 98.601562 193.734375 99.101562 193 99.101562 C 192.734375 98.832031 192.75 98.351562 193.050781 97.648438 C 193.316406 96.949219 193.398438 96.550781 193.300781 96.449219 "/>
    <path style=" stroke:none;fill-rule:evenodd;fill:rgb(21.568627%,41.960784%,28.235294%);fill-opacity:1;" d="M 192.601562 102.101562 C 192.332031 101.832031 193.882812 101.734375 197.25 101.800781 C 198.816406 102.234375 198.566406 102.832031 196.5 103.601562 C 194.433594 104.367188 193.035156 104.648438 192.300781 104.449219 C 192.035156 104.183594 192.050781 103.714844 192.351562 103.050781 C 192.617188 102.351562 192.699219 102.035156 192.601562 102.101562 "/>
    <path style=" stroke:none;fill-rule:evenodd;fill:rgb(21.568627%,41.960784%,28.235294%);fill-opacity:1;" d="M 191.949219 105.75 C 191.683594 105.382812 193.234375 105.5 196.601562 106.101562 C 198.167969 106.5 197.917969 107.015625 195.851562 107.648438 C 193.785156 108.25 192.382812 108.5 191.648438 108.398438 C 191.582031 107.199219 191.683594 106.316406 191.949219 105.75 "/>
    <path style=" stroke:none;fill-rule:evenodd;fill:rgb(21.568627%,41.960784%,28.235294%);fill-opacity:1;" d="M 223.75 79.949219 C 223.917969 79.949219 222.882812 79.632812 220.648438 79 C 218.449219 78.367188 213.964844 77.464844 207.199219 76.300781 C 202.964844 75.632812 202.167969 75.832031 204.800781 76.898438 C 207.433594 77.933594 210.984375 79.117188 215.449219 80.449219 C 219.882812 81.75 222.75 82.464844 224.050781 82.601562 C 225.316406 82.464844 225.601562 81.984375 224.898438 81.148438 C 224.167969 80.316406 223.785156 79.917969 223.75 79.949219 "/>
    <path style=" stroke:none;fill-rule:evenodd;fill:rgb(21.568627%,41.960784%,28.235294%);fill-opacity:1;" d="M 223.398438 84.550781 C 223.601562 84.550781 222.566406 84.234375 220.300781 83.601562 C 218.066406 82.964844 213.484375 82.066406 206.550781 80.898438 C 202.316406 80.234375 201.515625 80.433594 204.148438 81.5 C 206.785156 82.566406 210.351562 83.75 214.851562 85.050781 C 219.382812 86.351562 222.351562 87.066406 223.75 87.199219 C 224.851562 87.066406 225.050781 86.582031 224.351562 85.75 C 223.617188 84.917969 223.300781 84.515625 223.398438 84.550781 "/>
    <path style=" stroke:none;fill-rule:evenodd;fill:rgb(21.568627%,41.960784%,28.235294%);fill-opacity:1;" d="M 222.75 89.199219 C 222.917969 89.199219 221.898438 88.949219 219.699219 88.449219 C 217.464844 87.917969 212.964844 87.066406 206.199219 85.898438 C 201.964844 85.234375 201.167969 85.398438 203.800781 86.398438 C 206.433594 87.398438 209.964844 88.535156 214.398438 89.800781 C 218.867188 91.066406 221.75 91.75 223.050781 91.851562 C 224.316406 91.882812 224.601562 91.484375 223.898438 90.648438 C 223.167969 89.816406 222.785156 89.332031 222.75 89.199219 "/>
    <path style=" stroke:none;fill-rule:evenodd;fill:rgb(21.568627%,41.960784%,28.235294%);fill-opacity:1;" d="M 222.449219 94.148438 C 222.617188 94.148438 221.601562 93.832031 219.398438 93.199219 C 217.167969 92.566406 212.667969 91.667969 205.898438 90.5 C 201.566406 89.964844 200.699219 90.214844 203.300781 91.25 C 205.867188 92.285156 209.398438 93.433594 213.898438 94.699219 C 218.398438 96 221.367188 96.699219 222.800781 96.800781 C 223.898438 96.667969 224.082031 96.183594 223.351562 95.351562 C 222.648438 94.515625 222.351562 94.117188 222.449219 94.148438 "/>
    <path style=" stroke:none;fill-rule:evenodd;fill:rgb(21.568627%,41.960784%,28.235294%);fill-opacity:1;" d="M 221.75 99.449219 C 221.917969 99.449219 220.898438 99.167969 218.699219 98.601562 C 216.464844 98.035156 211.964844 97.332031 205.199219 96.5 C 200.964844 96.035156 200.167969 96.265625 202.800781 97.199219 C 205.433594 98.132812 208.964844 99.167969 213.398438 100.300781 C 217.867188 101.398438 220.75 102 222.050781 102.101562 C 223.316406 101.964844 223.601562 101.484375 222.898438 100.648438 C 222.167969 99.816406 221.785156 99.417969 221.75 99.449219 "/>
    <path style=" stroke:none;fill-rule:evenodd;fill:rgb(21.568627%,41.960784%,28.235294%);fill-opacity:1;" d="M 222.101562 104.75 C 222.265625 104.714844 221.183594 104.5 218.851562 104.101562 C 216.550781 103.699219 212 103.25 205.199219 102.75 C 200.898438 102.382812 200.050781 102.582031 202.648438 103.351562 C 205.285156 104.117188 208.867188 104.964844 213.398438 105.898438 C 217.898438 106.800781 220.800781 107.300781 222.101562 107.398438 C 223.367188 107.265625 223.648438 106.816406 222.949219 106.050781 C 222.285156 105.285156 222 104.851562 222.101562 104.75 "/>
    <path style=" stroke:none;fill-rule:evenodd;fill:rgb(21.568627%,41.960784%,28.235294%);fill-opacity:1;" d="M 222.75 108.699219 C 222.917969 108.699219 221.832031 108.515625 219.5 108.148438 C 217.199219 107.785156 212.648438 107.417969 205.851562 107.050781 C 201.515625 106.816406 200.683594 107.066406 203.351562 107.800781 C 205.984375 108.566406 209.566406 109.367188 214.101562 110.199219 C 218.667969 111 221.648438 111.382812 223.050781 111.351562 C 224.148438 111.25 224.351562 110.816406 223.648438 110.050781 C 222.949219 109.285156 222.648438 108.832031 222.75 108.699219 "/>
    <path style=" stroke:none;fill-rule:evenodd;fill:rgb(21.568627%,41.960784%,28.235294%);fill-opacity:1;" d="M 208.851562 69.648438 C 209.015625 69.117188 209.167969 68.050781 209.300781 66.449219 C 209.433594 64.816406 209.5 63.898438 209.5 63.699219 C 209.398438 63.734375 209.015625 63.535156 208.351562 63.101562 C 207.683594 62.667969 207.300781 61.867188 207.199219 60.699219 C 207.398438 59.367188 207.667969 57.199219 208 54.199219 C 208.300781 51.167969 208.484375 49.484375 208.550781 49.148438 L 211.5 47.800781 L 212.5 37.550781 L 215.148438 37.898438 L 214.148438 47.800781 L 216.449219 50.148438 C 216.417969 50.617188 216.234375 52.632812 215.898438 56.199219 C 215.535156 59.800781 215.167969 62.082031 214.800781 63.050781 C 213.964844 63.582031 213.316406 63.800781 212.851562 63.699219 L 211.851562 71.300781 C 211.714844 71.199219 211.214844 70.882812 210.351562 70.351562 C 209.484375 69.816406 208.984375 69.582031 208.851562 69.648438 "/>
    <path style=" stroke:none;fill-rule:evenodd;fill:rgb(21.568627%,41.960784%,28.235294%);fill-opacity:1;" d="M 282.648438 92.5 C 283.050781 92.5 285.066406 93.648438 288.699219 95.949219 C 292.332031 98.214844 295.167969 101.582031 297.199219 106.050781 C 298.765625 110.816406 299.632812 114.734375 299.800781 117.800781 C 299.933594 120.898438 299.949219 122.5 299.851562 122.601562 L 297.550781 122.601562 C 297.949219 122.101562 297.5 118.566406 296.199219 112 C 294.867188 105.464844 290.351562 98.964844 282.648438 92.5 "/>
    <path style=" stroke:none;fill-rule:evenodd;fill:rgb(21.568627%,41.960784%,28.235294%);fill-opacity:1;" d="M 236.648438 126.949219 C 238.015625 127.148438 238.566406 128.367188 238.300781 130.601562 C 238 132.699219 237.214844 133.800781 235.949219 133.898438 C 234.75 133.332031 234.199219 132.117188 234.300781 130.25 C 234.765625 127.984375 235.550781 126.882812 236.648438 126.949219 "/>
    <path style=" stroke:none;fill-rule:evenodd;fill:rgb(21.568627%,41.960784%,28.235294%);fill-opacity:1;" d="M 192 124.949219 L 220.800781 127.949219 L 220.449219 130.601562 L 191.648438 127.601562 L 192 124.949219 "/>
    <path style=" stroke:none;fill-rule:evenodd;fill:rgb(21.568627%,41.960784%,28.235294%);fill-opacity:1;" d="M 299.199219 135.199219 C 299.367188 133.199219 299.785156 130.117188 300.449219 125.949219 C 301.117188 121.785156 302.035156 118.464844 303.199219 116 C 304.398438 113.964844 305.398438 113.433594 306.199219 114.398438 C 307.035156 115.367188 307.464844 116 307.5 116.300781 L 309.148438 104.398438 L 312.148438 106.398438 L 315.449219 93.800781 L 319.75 91.5 C 319.714844 91.300781 319.734375 90.449219 319.800781 88.949219 C 319.832031 87.449219 320.066406 86.417969 320.5 85.851562 C 320.898438 85.285156 321.632812 86.285156 322.699219 88.851562 C 324.332031 92.851562 325.550781 95.832031 326.351562 97.800781 C 327.148438 99.800781 327.699219 101.566406 328 103.101562 C 328.398438 104.601562 328.933594 105.683594 329.601562 106.351562 C 330.234375 107.015625 330.582031 108.015625 330.648438 109.351562 C 330.515625 110.449219 330.550781 110.917969 330.75 110.75 C 330.949219 110.617188 331.132812 111.265625 331.300781 112.699219 C 331.433594 114.132812 332 114.851562 333 114.851562 C 333.964844 114.882812 334.515625 115.367188 334.648438 116.300781 C 334.617188 117.398438 334.949219 118.367188 335.648438 119.199219 C 336.351562 120.035156 336.667969 121.167969 336.601562 122.601562 C 336.734375 123.800781 337.183594 124.648438 337.949219 125.148438 C 338.714844 125.683594 339.148438 126.714844 339.25 128.25 C 339.449219 130.050781 339.667969 131.949219 339.898438 133.949219 C 340.132812 135.917969 340.25 136.984375 340.25 137.148438 C 340.382812 136.882812 340.867188 136.351562 341.699219 135.550781 C 342.535156 134.75 342.933594 135.285156 342.898438 137.148438 C 342.132812 141.417969 341.699219 143.515625 341.601562 143.449219 C 341.398438 143.417969 339.265625 143.300781 335.199219 143.101562 C 331.132812 142.867188 326.199219 142.648438 320.398438 142.449219 L 320.75 141.449219 C 321.082031 139.714844 321.898438 138.667969 323.199219 138.300781 C 324.464844 137.898438 325.183594 137.75 325.351562 137.851562 L 320.050781 138.148438 C 320.050781 137.949219 320.015625 136.734375 319.949219 134.5 C 319.882812 132.300781 319.917969 130.433594 320.050781 128.898438 C 320.417969 127.566406 321.351562 126.515625 322.851562 125.75 C 324.316406 124.984375 325.148438 124.601562 325.351562 124.601562 L 319.398438 125.601562 L 318.398438 99.75 L 317.75 120.601562 L 312.800781 118.648438 C 312.964844 118.75 313.632812 119.285156 314.800781 120.25 C 316 121.214844 316.765625 122 317.101562 122.601562 C 317.300781 123.464844 317.417969 125.234375 317.449219 127.898438 C 317.449219 130.566406 317.214844 132 316.75 132.199219 C 315.683594 132.132812 313.582031 131.800781 310.449219 131.199219 C 307.351562 130.632812 305.601562 130.300781 305.199219 130.199219 C 305.667969 130.300781 307.550781 130.867188 310.851562 131.898438 C 314.148438 132.964844 316.117188 133.949219 316.75 134.851562 C 317.417969 136.785156 317.75 139.214844 317.75 142.148438 C 312.648438 141.984375 307.882812 141.832031 303.449219 141.699219 C 299.015625 141.566406 295.734375 141.484375 293.601562 141.449219 C 289.800781 141.25 288.867188 140.332031 290.800781 138.699219 C 292.765625 137.066406 295.566406 135.898438 299.199219 135.199219 "/>
    <path style=" stroke:none;fill-rule:evenodd;fill:rgb(21.568627%,41.960784%,28.235294%);fill-opacity:1;" d="M 148.601562 140.851562 C 148.398438 139.648438 148.285156 137.683594 148.25 134.949219 C 148.25 132.214844 148.484375 129.984375 148.949219 128.25 C 149.484375 126.949219 150.050781 126.535156 150.648438 127 C 151.214844 127.464844 151.535156 127.785156 151.601562 127.949219 L 151.25 120.351562 L 153.25 121.300781 L 153.550781 112.699219 L 156.199219 110.75 C 156.066406 110.382812 155.933594 109.464844 155.800781 108 C 155.667969 106.566406 156.351562 106.816406 157.851562 108.75 C 159.316406 111.148438 160.433594 112.898438 161.199219 114 C 161.964844 115.101562 162.515625 116.101562 162.851562 117 C 163.949219 118.398438 164.714844 119.617188 165.148438 120.648438 C 165.285156 121.484375 165.398438 121.816406 165.5 121.648438 C 165.601562 121.484375 165.816406 121.816406 166.148438 122.648438 C 166.382812 123.484375 166.816406 123.851562 167.449219 123.75 C 168.117188 123.648438 168.566406 123.949219 168.800781 124.648438 C 168.867188 125.285156 169.199219 125.851562 169.800781 126.351562 C 170.367188 126.851562 170.683594 127.484375 170.75 128.25 C 170.984375 128.984375 171.382812 129.5 171.949219 129.800781 C 172.550781 130.101562 173.035156 130.699219 173.398438 131.601562 C 173.632812 132.699219 173.949219 133.882812 174.351562 135.148438 C 174.785156 136.417969 175.015625 137.101562 175.050781 137.199219 C 175.082031 137.035156 175.265625 136.648438 175.601562 136.050781 C 175.933594 135.449219 176.199219 135.734375 176.398438 136.898438 C 176.566406 139.535156 176.566406 140.851562 176.398438 140.851562 C 176.265625 140.882812 174.933594 141.082031 172.398438 141.449219 C 169.832031 141.851562 166.75 142.316406 163.148438 142.851562 L 162.851562 142.148438 C 162.949219 141.183594 163.382812 140.5 164.148438 140.101562 C 164.917969 139.699219 165.367188 139.515625 165.5 139.550781 L 162.148438 140.199219 C 162.117188 140.066406 161.949219 139.332031 161.648438 138 C 161.382812 136.667969 161.234375 135.515625 161.199219 134.550781 C 161.167969 133.683594 161.566406 132.867188 162.398438 132.101562 C 163.199219 131.367188 163.667969 130.964844 163.800781 130.898438 L 160.199219 132.601562 L 156.550781 116.351562 L 158.550781 129.25 L 155.199219 128.601562 C 155.332031 128.667969 155.832031 128.964844 156.699219 129.5 C 157.566406 130.066406 158.066406 130.535156 158.199219 130.898438 C 158.433594 131.433594 158.765625 132.515625 159.199219 134.148438 C 159.601562 135.75 159.601562 136.667969 159.199219 136.898438 C 158.601562 137.035156 157.300781 137.066406 155.300781 137 C 153.300781 136.933594 152.167969 136.898438 151.898438 136.898438 C 152.199219 136.898438 153.449219 137.050781 155.648438 137.351562 C 157.816406 137.648438 159.214844 138.050781 159.851562 138.550781 C 160.285156 139.582031 160.734375 141.117188 161.199219 143.148438 C 157.933594 143.648438 154.898438 144.132812 152.101562 144.601562 C 149.265625 145.066406 147.214844 145.464844 145.949219 145.800781 C 143.484375 146.132812 142.765625 145.632812 143.800781 144.300781 C 144.832031 143 146.433594 141.851562 148.601562 140.851562 "/>
    <path style=" stroke:none;fill-rule:evenodd;fill:rgb(90.588235%,68.235294%,27.45098%);fill-opacity:1;" d="M 215.148438 138.5 C 214.648438 138.398438 209.5 138.601562 199.699219 139.101562 C 189.933594 139.632812 178.433594 141.082031 165.199219 143.449219 C 152.867188 145.917969 144.984375 147.75 141.550781 148.949219 C 138.117188 150.148438 136.617188 150.75 137.050781 150.75 L 147.300781 152.75 C 147.535156 152.582031 150.964844 151.449219 157.601562 149.351562 C 164.265625 147.214844 172.734375 145.035156 183 142.800781 C 193.265625 140.535156 203.984375 139.101562 215.148438 138.5 "/>
    <path style=" stroke:none;fill-rule:evenodd;fill:rgb(90.588235%,68.235294%,27.45098%);fill-opacity:1;" d="M 237.648438 144.800781 C 237.148438 144.699219 232.015625 144.898438 222.25 145.398438 C 212.484375 145.933594 201.066406 147.382812 188 149.75 C 175.667969 152.25 167.785156 154.082031 164.351562 155.25 C 160.917969 156.449219 159.417969 157.050781 159.851562 157.050781 L 169.800781 159.050781 C 170.035156 158.882812 173.464844 157.75 180.101562 155.648438 C 186.734375 153.515625 195.183594 151.332031 205.449219 149.101562 C 215.75 146.832031 226.484375 145.398438 237.648438 144.800781 "/>
    <path style=" stroke:none;fill-rule:evenodd;fill:rgb(90.588235%,68.235294%,27.45098%);fill-opacity:1;" d="M 270.101562 147.449219 C 269.601562 147.351562 264.449219 147.617188 254.648438 148.25 C 244.851562 148.851562 233.332031 150.351562 220.101562 152.75 C 207.933594 155.214844 200.148438 157 196.75 158.101562 C 193.382812 159.199219 191.898438 159.734375 192.300781 159.699219 L 202.25 161.699219 C 202.484375 161.535156 205.917969 160.417969 212.550781 158.351562 C 219.183594 156.285156 227.648438 154.132812 237.949219 151.898438 C 248.214844 149.632812 258.933594 148.148438 270.101562 147.449219 "/>
    <path style=" stroke:none;fill-rule:evenodd;fill:rgb(90.588235%,68.235294%,27.45098%);fill-opacity:1;" d="M 308.148438 148.75 C 307.648438 148.648438 302.464844 148.851562 292.601562 149.351562 C 282.734375 149.882812 271.265625 151.332031 258.199219 153.699219 C 245.867188 156.167969 237.984375 158 234.550781 159.199219 C 231.117188 160.398438 229.617188 161 230.050781 161 L 240 163 C 240.234375 162.832031 243.699219 161.699219 250.398438 159.601562 C 257.066406 157.464844 265.566406 155.285156 275.898438 153.050781 C 286.234375 150.785156 296.984375 149.351562 308.148438 148.75 "/>
    <path style=" stroke:none;fill-rule:evenodd;fill:rgb(90.588235%,68.235294%,27.45098%);fill-opacity:1;" d="M 334.300781 154.050781 C 333.800781 153.949219 328.617188 154.148438 318.75 154.648438 C 308.882812 155.183594 297.417969 156.632812 284.351562 159 C 272.015625 161.464844 264.132812 163.300781 260.699219 164.5 C 257.265625 165.699219 255.765625 166.300781 256.199219 166.300781 L 266.148438 168.300781 C 266.382812 168.132812 269.851562 167 276.550781 164.898438 C 283.214844 162.765625 291.714844 160.582031 302.050781 158.351562 C 312.382812 156.082031 323.132812 154.648438 334.300781 154.050781 "/>
    <path style=" stroke:none;fill-rule:evenodd;fill:rgb(90.588235%,68.235294%,27.45098%);fill-opacity:1;" d="M 283.648438 81.898438 C 283.785156 81.601562 285.316406 81.035156 288.25 80.199219 C 291.214844 79.367188 294.75 80.050781 298.851562 82.25 C 302.683594 85.050781 304.148438 88.433594 303.25 92.398438 C 302.351562 96.398438 301 98.964844 299.199219 100.101562 C 298.265625 100.601562 298.617188 99.148438 300.25 95.75 C 301.882812 92.316406 301.417969 89.035156 298.851562 85.898438 C 295.449219 83.367188 292.066406 82.332031 288.699219 82.800781 C 285.367188 83.265625 283.566406 83.632812 283.300781 83.898438 C 283.199219 83.800781 283.050781 83.433594 282.851562 82.800781 C 282.648438 82.132812 282.917969 81.832031 283.648438 81.898438 "/>
    <path style=" stroke:none;fill-rule:evenodd;fill:rgb(90.588235%,68.235294%,27.45098%);fill-opacity:1;" d="M 284.300781 77.601562 C 284.234375 77.300781 284.035156 75.734375 283.699219 72.898438 C 283.398438 70.035156 283.382812 67.632812 283.648438 65.699219 C 284.015625 63.832031 284.582031 63.582031 285.351562 64.949219 C 286.082031 66.316406 285.734375 70.535156 284.300781 77.601562 "/>
    <path style=" stroke:none;fill-rule:evenodd;fill:rgb(90.588235%,68.235294%,27.45098%);fill-opacity:1;" d="M 290.601562 77.25 C 290.632812 76.882812 290.917969 74.882812 291.449219 71.25 C 292.015625 67.617188 292.734375 64.550781 293.601562 62.050781 C 294.898438 59.851562 295.765625 59.734375 296.199219 61.699219 C 296.632812 63.667969 294.765625 68.851562 290.601562 77.25 "/>
    <path style=" stroke:none;fill-rule:evenodd;fill:rgb(90.588235%,68.235294%,27.45098%);fill-opacity:1;" d="M 296.550781 77.648438 C 296.617188 77.449219 297.066406 76.417969 297.898438 74.550781 C 298.765625 72.714844 299.648438 71.199219 300.550781 70 C 301.417969 68.964844 301.816406 69 301.75 70.101562 C 301.714844 71.199219 299.984375 73.714844 296.550781 77.648438 "/>
    <path style=" stroke:none;fill-rule:evenodd;fill:rgb(90.588235%,68.235294%,27.45098%);fill-opacity:1;" d="M 300.199219 79.300781 C 300.367188 79.035156 301.5 77.734375 303.601562 75.398438 C 305.667969 73.066406 307.617188 71.265625 309.449219 70 C 311.417969 69.035156 312.066406 69.332031 311.398438 70.898438 C 310.765625 72.5 307.035156 75.300781 300.199219 79.300781 "/>
    <path style=" stroke:none;fill-rule:evenodd;fill:rgb(90.588235%,68.235294%,27.45098%);fill-opacity:1;" d="M 303.199219 82.25 C 303.433594 82.117188 304.714844 81.535156 307.050781 80.5 C 309.382812 79.464844 311.417969 78.734375 313.148438 78.300781 C 314.851562 78.234375 315.214844 78.683594 314.25 79.648438 C 313.285156 80.617188 309.601562 81.484375 303.199219 82.25 "/>
    <path style=" stroke:none;fill-rule:evenodd;fill:rgb(90.588235%,68.235294%,27.45098%);fill-opacity:1;" d="M 306.5 87.199219 C 306.699219 87.167969 307.734375 87.082031 309.601562 86.949219 C 311.5 86.785156 313.117188 86.765625 314.449219 86.898438 C 315.714844 87.367188 315.882812 87.832031 314.949219 88.300781 C 313.984375 88.765625 311.167969 88.398438 306.5 87.199219 "/>
    <path style=" stroke:none;fill-rule:evenodd;fill:rgb(90.588235%,68.235294%,27.45098%);fill-opacity:1;" d="M 303.851562 92.851562 C 304.015625 92.882812 304.917969 93.167969 306.550781 93.699219 C 308.148438 94.199219 309.449219 94.800781 310.449219 95.5 C 311.351562 96.332031 311.332031 96.765625 310.398438 96.800781 C 309.464844 96.832031 307.285156 95.515625 303.851562 92.851562 "/>
    <path style=" stroke:none;fill-rule:evenodd;fill:rgb(90.588235%,68.235294%,27.45098%);fill-opacity:1;" d="M 302.851562 98.449219 C 303.015625 98.484375 303.917969 98.800781 305.550781 99.398438 C 307.148438 100 308.449219 100.566406 309.449219 101.101562 C 310.351562 101.933594 310.332031 102.367188 309.398438 102.398438 C 308.464844 102.433594 306.285156 101.117188 302.851562 98.449219 "/>
    <path style=" stroke:none;fill-rule:evenodd;fill:rgb(90.588235%,68.235294%,27.45098%);fill-opacity:1;" d="M 300.199219 101.101562 C 300.367188 101.234375 301.132812 102 302.5 103.398438 C 303.898438 104.800781 305.015625 106.132812 305.851562 107.398438 C 306.316406 108.566406 306.082031 108.917969 305.148438 108.449219 C 304.183594 107.984375 302.535156 105.535156 300.199219 101.101562 "/>
  </g>
  <g id="surface4">
    <text style="fill:rgb(55,107,72)" font-family="Futura Md BT" font-size="50" transform="matrix(1,0,0,1,49.558104,220.25)" ><![CDATA[CPS Belgium sprl]]></text>
    <text style="fill:rgb(231,174,70)" font-family="Helvetica" font-size="35" transform="matrix(1,0,0,1,93.78784,273.25)" ><![CDATA[Company that care]]></text>
  </g>
</svg>